<svg viewBox="0 0 28 28" fill="none" xmlns="http://www.w3.org/2000/svg">
<mask id="mask0_44_361" style="mask-type:alpha" maskUnits="userSpaceOnUse" x="2" y="2" width="24" height="24">
<rect x="2" y="2" width="24" height="24" fill="#D9D9D9"/>
</mask>
<g mask="url(#mask0_44_361)">
<path d="M6.5 20.8845V19.3848H8.30775V11.923C8.30775 10.5782 8.72283 9.38908 9.553 8.35575C10.383 7.32242 11.4487 6.6615 12.75 6.373V5.75C12.75 5.40283 12.8714 5.10767 13.1143 4.8645C13.3571 4.6215 13.6519 4.5 13.9988 4.5C14.3458 4.5 14.641 4.6215 14.8845 4.8645C15.1282 5.10767 15.25 5.40283 15.25 5.75V6.373C16.5513 6.6615 17.617 7.32242 18.447 8.35575C19.2772 9.38908 19.6923 10.5782 19.6923 11.923V19.3848H21.5V20.8845H6.5ZM13.9983 23.6923C13.5008 23.6923 13.0754 23.5153 12.7223 23.1613C12.3689 22.8073 12.1923 22.3817 12.1923 21.8845H15.8077C15.8077 22.3833 15.6306 22.8093 15.2762 23.1625C14.9219 23.5157 14.4959 23.6923 13.9983 23.6923ZM9.80775 19.3848H18.1923V11.923C18.1923 10.7653 17.783 9.77725 16.9645 8.95875C16.1458 8.14008 15.1577 7.73075 14 7.73075C12.8423 7.73075 11.8542 8.14008 11.0355 8.95875C10.217 9.77725 9.80775 10.7653 9.80775 11.923V19.3848Z" fill="currentColor"/>
</g>
</svg>
