<svg viewBox="0 0 28 28" fill="none" xmlns="http://www.w3.org/2000/svg">
<path d="M10.0722 4H19.5389C20.223 4 20.9091 4.11179 21.3881 4.60821C21.8599 5.09846 21.9491 5.77744 21.9491 6.41026V18.5128C21.9491 19.0697 21.8753 19.6174 21.5901 20.0605C21.4257 20.3161 21.1954 20.5226 20.9235 20.6585V21.5897C20.9235 22.2728 20.8127 22.959 20.3173 23.438C19.8271 23.9118 19.1481 24 18.5153 24H7.59015C7.18212 24 6.79081 23.8379 6.50229 23.5494C6.21377 23.2609 6.05169 22.8696 6.05169 22.4615V7.86359C6.04861 7.35282 6.04553 6.71487 6.18502 6.13333C6.3563 5.42359 6.75117 4.73538 7.59117 4.30769C7.93784 4.13128 8.30297 4.06154 8.69271 4.03077C9.06707 4 9.52348 4 10.0722 4ZM7.59015 22.4615H18.5153C19.0763 22.4615 19.2158 22.3631 19.2476 22.3323C19.2732 22.3077 19.385 22.1733 19.385 21.5897V20.9231H9.12861C8.72058 20.9231 8.32927 21.0852 8.04075 21.3737C7.75223 21.6622 7.59015 22.0535 7.59015 22.4615Z" fill="currentColor"/>
</svg>
