<svg viewBox="0 0 16 16" fill="none" xmlns="http://www.w3.org/2000/svg">
<mask id="mask0_253_647" style="mask-type:alpha" maskUnits="userSpaceOnUse" x="0" y="0" width="16" height="16">
<rect width="16" height="16" fill="#D9D9D9"/>
</mask>
<g mask="url(#mask0_253_647)">
<path d="M7.06659 11.0666L11.7666 6.36659L10.8333 5.43325L7.06659 9.19992L5.16658 7.29992L4.23325 8.23325L7.06659 11.0666ZM7.99992 14.6666C7.0777 14.6666 6.21103 14.4916 5.39992 14.1416C4.58881 13.7916 3.88325 13.3166 3.28325 12.7166C2.68325 12.1166 2.20825 11.411 1.85825 10.5999C1.50825 9.78881 1.33325 8.92214 1.33325 7.99992C1.33325 7.0777 1.50825 6.21103 1.85825 5.39992C2.20825 4.58881 2.68325 3.88325 3.28325 3.28325C3.88325 2.68325 4.58881 2.20825 5.39992 1.85825C6.21103 1.50825 7.0777 1.33325 7.99992 1.33325C8.92214 1.33325 9.78881 1.50825 10.5999 1.85825C11.411 2.20825 12.1166 2.68325 12.7166 3.28325C13.3166 3.88325 13.7916 4.58881 14.1416 5.39992C14.4916 6.21103 14.6666 7.0777 14.6666 7.99992C14.6666 8.92214 14.4916 9.78881 14.1416 10.5999C13.7916 11.411 13.3166 12.1166 12.7166 12.7166C12.1166 13.3166 11.411 13.7916 10.5999 14.1416C9.78881 14.4916 8.92214 14.6666 7.99992 14.6666Z" fill="#FF0D6E"/>
</g>
</svg>
