<svg viewBox="0 0 28 28" fill="none" xmlns="http://www.w3.org/2000/svg">
<mask id="mask0_642_1659" style="mask-type:alpha" maskUnits="userSpaceOnUse" x="0" y="0" width="28" height="28">
<rect width="28" height="28" fill="#D9D9D9"/>
</mask>
<g mask="url(#mask0_642_1659)">
<path d="M13.9998 16.3582C14.9242 15.5116 15.6665 14.8141 16.2267 14.2657C16.7867 13.7176 17.2208 13.2484 17.529 12.8582C17.8372 12.4677 18.044 12.124 18.1494 11.8271C18.2548 11.53 18.3075 11.2104 18.3075 10.8684C18.3075 10.2205 18.0746 9.66247 17.6089 9.19425C17.143 8.72603 16.5876 8.49192 15.9426 8.49192C15.565 8.49192 15.2007 8.56862 14.8498 8.72204C14.499 8.87546 14.2157 9.0875 13.9998 9.35816C13.7826 9.0875 13.5022 8.87546 13.1584 8.72204C12.8144 8.56862 12.4457 8.49192 12.0524 8.49192C11.4088 8.49192 10.8545 8.72564 10.3896 9.19308C9.92467 9.66053 9.69221 10.2178 9.69221 10.8649C9.69221 11.2066 9.74005 11.5217 9.83571 11.8102C9.93138 12.099 10.1333 12.4386 10.4415 12.829C10.7497 13.2192 11.1827 13.6904 11.7406 14.2424C12.2984 14.7942 13.0515 15.4995 13.9998 16.3582ZM6.4165 23.625V6.19242C6.4165 5.60305 6.62067 5.10421 7.029 4.69587C7.43734 4.28754 7.93618 4.08337 8.52555 4.08337H19.4741C20.0635 4.08337 20.5623 4.28754 20.9707 4.69587C21.379 5.10421 21.5832 5.60305 21.5832 6.19242V23.625L13.9998 20.3718L6.4165 23.625Z" fill="currentColor"/>
</g>
</svg>
