<svg viewBox="0 0 28 28" fill="none" xmlns="http://www.w3.org/2000/svg">
<g clip-path="url(#clip0_39_479)">
<path d="M9.88621 20.7202C7.11795 18.539 4.82315 15.6131 4.11959 12.2204C3.95292 11.4165 3.89689 10.5149 4.38175 9.84358C5.00647 8.97875 6.29115 8.83811 7.3516 9.0754C10.4362 9.76529 12.3479 12.6776 13.9266 15.3407C13.8035 13.4151 13.6823 11.4625 14.0819 9.57259C14.4815 7.6827 15.4708 5.83015 17.1382 4.77967C18.8057 3.7292 21.2119 3.68319 22.6725 4.99195C24.4311 6.56726 24.2456 9.36738 23.2543 11.4816C22.0741 13.9979 20.0179 16.0288 18.6319 18.4441C18.0427 19.4712 17.599 20.6092 17.4193 21.7736C17.2609 22.8026 17.7046 24.1545 17.2488 25C14.6611 24.1626 11.9967 22.3849 9.88621 20.7202Z" fill="currentColor"/>
</g>
<defs>
<clipPath id="clip0_39_479">
<rect width="28" height="28" fill="white"/>
</clipPath>
</defs>
</svg>
