<svg viewBox="0 0 28 28" fill="none" xmlns="http://www.w3.org/2000/svg">
<path d="M4.90039 22.7V11.4007C4.90039 11.0679 4.97492 10.7529 5.12398 10.4556C5.27305 10.1584 5.47844 9.91355 5.74017 9.72116L12.7405 4.41989C13.1071 4.13996 13.5257 4 13.9963 4C14.4669 4 14.888 4.13996 15.2598 4.41989L22.2602 9.71986C22.5227 9.91225 22.7281 10.1575 22.8763 10.4556C23.0254 10.7529 23.0999 11.0679 23.0999 11.4007V22.7C23.0999 23.0484 22.9704 23.3522 22.7112 23.6113C22.4521 23.8704 22.1484 24 21.8 24H17.4009C17.1028 24 16.8532 23.8995 16.6521 23.6984C16.451 23.4965 16.3505 23.2469 16.3505 22.9496V16.7501C16.3505 16.4528 16.25 16.2037 16.0489 16.0026C15.847 15.8007 15.5974 15.6997 15.3001 15.6997H12.7002C12.4029 15.6997 12.1538 15.8007 11.9527 16.0026C11.7508 16.2037 11.6498 16.4528 11.6498 16.7501V22.9509C11.6498 23.2482 11.5493 23.4973 11.3482 23.6984C11.1472 23.8995 10.898 24 10.6007 24H6.20036C5.85197 24 5.54821 23.8704 5.28908 23.6113C5.02995 23.3522 4.90039 23.0484 4.90039 22.7Z" fill="currentColor"/>
</svg>
