<svg viewBox="0 0 28 28" fill="none" xmlns="http://www.w3.org/2000/svg">
<path d="M14 14C12.625 14 11.4479 13.5104 10.4687 12.5312C9.48958 11.5521 9 10.375 9 9C9 7.625 9.48958 6.44792 10.4687 5.46875C11.4479 4.48958 12.625 4 14 4C15.375 4 16.5521 4.48958 17.5312 5.46875C18.5104 6.44792 19 7.625 19 9C19 10.375 18.5104 11.5521 17.5312 12.5312C16.5521 13.5104 15.375 14 14 14ZM4 21.5V20.5C4 19.7917 4.1825 19.1408 4.5475 18.5475C4.9125 17.9542 5.39667 17.5008 6 17.1875C7.29167 16.5417 8.60417 16.0575 9.9375 15.735C11.2708 15.4125 12.625 15.2508 14 15.25C15.375 15.2492 16.7292 15.4108 18.0625 15.735C19.3958 16.0592 20.7083 16.5433 22 17.1875C22.6042 17.5 23.0887 17.9533 23.4537 18.5475C23.8187 19.1417 24.0008 19.7925 24 20.5V21.5C24 22.1875 23.7554 22.7762 23.2662 23.2662C22.7771 23.7562 22.1883 24.0008 21.5 24H6.5C5.8125 24 5.22417 23.7554 4.735 23.2662C4.24583 22.7771 4.00083 22.1883 4 21.5Z" fill="currentColor"/>
</svg>
