<svg viewBox="0 0 65 64" fill="none" xmlns="http://www.w3.org/2000/svg">
<path d="M32.4978 59.9955C51.1667 59.9955 60.4955 47.4605 60.4955 31.9978C60.4955 16.535 51.1667 4 32.4978 4C13.8289 4 4.5 16.535 4.5 31.9978C4.5 47.4605 13.8289 59.9955 32.4978 59.9955Z" fill="url(#paint0_radial_639_7864)"/>
<path d="M32.4978 59.9955C51.1667 59.9955 60.4955 47.4605 60.4955 31.9978C60.4955 16.535 51.1667 4 32.4978 4C13.8289 4 4.5 16.535 4.5 31.9978C4.5 47.4605 13.8289 59.9955 32.4978 59.9955Z" fill="url(#paint1_radial_639_7864)"/>
<path d="M32.4978 59.9955C51.1667 59.9955 60.4955 47.4605 60.4955 31.9978C60.4955 16.535 51.1667 4 32.4978 4C13.8289 4 4.5 16.535 4.5 31.9978C4.5 47.4605 13.8289 59.9955 32.4978 59.9955Z" fill="url(#paint2_radial_639_7864)" fill-opacity="0.6"/>
<path d="M32.4978 59.9955C51.1667 59.9955 60.4955 47.4605 60.4955 31.9978C60.4955 16.535 51.1667 4 32.4978 4C13.8289 4 4.5 16.535 4.5 31.9978C4.5 47.4605 13.8289 59.9955 32.4978 59.9955Z" fill="url(#paint3_radial_639_7864)"/>
<path d="M32.4978 59.9955C51.1667 59.9955 60.4955 47.4605 60.4955 31.9978C60.4955 16.535 51.1667 4 32.4978 4C13.8289 4 4.5 16.535 4.5 31.9978C4.5 47.4605 13.8289 59.9955 32.4978 59.9955Z" fill="url(#paint4_radial_639_7864)"/>
<path d="M32.4978 59.9955C51.1667 59.9955 60.4955 47.4605 60.4955 31.9978C60.4955 16.535 51.1667 4 32.4978 4C13.8289 4 4.5 16.535 4.5 31.9978C4.5 47.4605 13.8289 59.9955 32.4978 59.9955Z" fill="url(#paint5_radial_639_7864)"/>
<path d="M32.4978 59.9955C51.1667 59.9955 60.4955 47.4605 60.4955 31.9978C60.4955 16.535 51.1667 4 32.4978 4C13.8289 4 4.5 16.535 4.5 31.9978C4.5 47.4605 13.8289 59.9955 32.4978 59.9955Z" fill="url(#paint6_radial_639_7864)"/>
<path d="M32.4978 59.9955C51.1667 59.9955 60.4955 47.4605 60.4955 31.9978C60.4955 16.535 51.1667 4 32.4978 4C13.8289 4 4.5 16.535 4.5 31.9978C4.5 47.4605 13.8289 59.9955 32.4978 59.9955Z" fill="url(#paint7_radial_639_7864)"/>
<path d="M32.4978 59.9955C51.1667 59.9955 60.4955 47.4605 60.4955 31.9978C60.4955 16.535 51.1667 4 32.4978 4C13.8289 4 4.5 16.535 4.5 31.9978C4.5 47.4605 13.8289 59.9955 32.4978 59.9955Z" fill="url(#paint8_radial_639_7864)"/>
<path d="M32.4978 59.9955C51.1667 59.9955 60.4955 47.4605 60.4955 31.9978C60.4955 16.535 51.1667 4 32.4978 4C13.8289 4 4.5 16.535 4.5 31.9978C4.5 47.4605 13.8289 59.9955 32.4978 59.9955Z" fill="url(#paint9_radial_639_7864)"/>
<path d="M32.4978 59.9955C51.1667 59.9955 60.4955 47.4605 60.4955 31.9978C60.4955 16.535 51.1667 4 32.4978 4C13.8289 4 4.5 16.535 4.5 31.9978C4.5 47.4605 13.8289 59.9955 32.4978 59.9955Z" fill="url(#paint10_radial_639_7864)"/>
<path d="M32.4978 59.9955C51.1667 59.9955 60.4955 47.4605 60.4955 31.9978C60.4955 16.535 51.1667 4 32.4978 4C13.8289 4 4.5 16.535 4.5 31.9978C4.5 47.4605 13.8289 59.9955 32.4978 59.9955Z" fill="url(#paint11_radial_639_7864)"/>
<path d="M32.4978 59.9955C51.1667 59.9955 60.4955 47.4605 60.4955 31.9978C60.4955 16.535 51.1667 4 32.4978 4C13.8289 4 4.5 16.535 4.5 31.9978C4.5 47.4605 13.8289 59.9955 32.4978 59.9955Z" fill="url(#paint12_radial_639_7864)"/>
<path d="M32.4978 59.9955C51.1667 59.9955 60.4955 47.4605 60.4955 31.9978C60.4955 16.535 51.1667 4 32.4978 4C13.8289 4 4.5 16.535 4.5 31.9978C4.5 47.4605 13.8289 59.9955 32.4978 59.9955Z" fill="url(#paint13_radial_639_7864)"/>
<path fill-rule="evenodd" clip-rule="evenodd" d="M27.9082 39.4284C27.8682 39.4622 27.8283 39.496 27.7884 39.5297C26.9435 40.2412 25.6818 40.1331 24.9703 39.2882C24.2587 38.4433 24.3669 37.1816 25.2117 36.4701C25.2481 36.4395 25.2881 36.4053 25.3318 36.368C25.7914 35.9756 26.6547 35.2384 27.8833 34.6871C29.2677 34.0659 31.0444 33.7012 33.2821 34.0199C35.5561 34.3438 37.1689 35.2574 38.3043 36.3344C39.3832 37.3576 39.9575 38.4656 40.2547 39.0391C40.2617 39.0526 40.2686 39.0658 40.2753 39.0787C40.784 40.0592 40.4016 41.2664 39.4212 41.7751C38.4407 42.2838 37.2335 41.9014 36.7248 40.921C36.4447 40.3812 36.1265 39.7818 35.5517 39.2366C35.008 38.7209 34.1563 38.1848 32.718 37.98C31.2433 37.7699 30.229 38.0188 29.5209 38.3365C28.8335 38.645 28.3668 39.0401 27.9082 39.4284Z" fill="url(#paint14_radial_639_7864)"/>
<path fill-rule="evenodd" clip-rule="evenodd" d="M27.9082 39.4284C27.8682 39.4622 27.8283 39.496 27.7884 39.5297C26.9435 40.2412 25.6818 40.1331 24.9703 39.2882C24.2587 38.4433 24.3669 37.1816 25.2117 36.4701C25.2481 36.4395 25.2881 36.4053 25.3318 36.368C25.7914 35.9756 26.6547 35.2384 27.8833 34.6871C29.2677 34.0659 31.0444 33.7012 33.2821 34.0199C35.5561 34.3438 37.1689 35.2574 38.3043 36.3344C39.3832 37.3576 39.9575 38.4656 40.2547 39.0391C40.2617 39.0526 40.2686 39.0658 40.2753 39.0787C40.784 40.0592 40.4016 41.2664 39.4212 41.7751C38.4407 42.2838 37.2335 41.9014 36.7248 40.921C36.4447 40.3812 36.1265 39.7818 35.5517 39.2366C35.008 38.7209 34.1563 38.1848 32.718 37.98C31.2433 37.7699 30.229 38.0188 29.5209 38.3365C28.8335 38.645 28.3668 39.0401 27.9082 39.4284Z" fill="url(#paint15_radial_639_7864)"/>
<path fill-rule="evenodd" clip-rule="evenodd" d="M27.9082 39.4284C27.8682 39.4622 27.8283 39.496 27.7884 39.5297C26.9435 40.2412 25.6818 40.1331 24.9703 39.2882C24.2587 38.4433 24.3669 37.1816 25.2117 36.4701C25.2481 36.4395 25.2881 36.4053 25.3318 36.368C25.7914 35.9756 26.6547 35.2384 27.8833 34.6871C29.2677 34.0659 31.0444 33.7012 33.2821 34.0199C35.5561 34.3438 37.1689 35.2574 38.3043 36.3344C39.3832 37.3576 39.9575 38.4656 40.2547 39.0391C40.2617 39.0526 40.2686 39.0658 40.2753 39.0787C40.784 40.0592 40.4016 41.2664 39.4212 41.7751C38.4407 42.2838 37.2335 41.9014 36.7248 40.921C36.4447 40.3812 36.1265 39.7818 35.5517 39.2366C35.008 38.7209 34.1563 38.1848 32.718 37.98C31.2433 37.7699 30.229 38.0188 29.5209 38.3365C28.8335 38.645 28.3668 39.0401 27.9082 39.4284Z" fill="url(#paint16_radial_639_7864)"/>
<path d="M21.3382 32.4489C25.984 32.4489 29.7501 28.6827 29.7501 24.0369C29.7501 19.3911 25.984 15.625 21.3382 15.625C16.6924 15.625 12.9263 19.3911 12.9263 24.0369C12.9263 28.6827 16.6924 32.4489 21.3382 32.4489Z" fill="white"/>
<path d="M43.6366 32.6022C48.3247 32.6022 52.1252 28.8018 52.1252 24.1136C52.1252 19.4255 48.3247 15.625 43.6366 15.625C38.9484 15.625 35.1479 19.4255 35.1479 24.1136C35.1479 28.8018 38.9484 32.6022 43.6366 32.6022Z" fill="white"/>
<path d="M20.5 19C22.7091 19 24.5 20.7909 24.5 23C24.5 25.2091 22.7091 27 20.5 27C18.2909 27 16.5 25.2091 16.5 23C16.5 20.7909 18.2909 19 20.5 19ZM42.5 19C44.7091 19 46.5 20.7909 46.5 23C46.5 25.2091 44.7091 27 42.5 27C40.2909 27 38.5 25.2091 38.5 23C38.5 20.7909 40.2909 19 42.5 19Z" fill="url(#paint17_linear_639_7864)"/>
<path d="M17.5381 34.0498C19.1177 34.0498 20.3735 35.3769 20.2861 36.9541L20.0586 41.041C19.9982 42.1321 20.8672 43.0498 21.96 43.0498H32C33.353 43.0499 34.4502 44.1469 34.4502 45.5C34.4502 46.8531 33.353 47.9501 32 47.9502H28.2881L28.4775 48.0449L29.1113 48.3613C29.9318 48.7717 30.4502 49.611 30.4502 50.5283C30.4499 51.8658 29.3649 52.9502 28.0273 52.9502H27.0938L27.4883 53.0488H27.4893C27.4901 53.049 27.4916 53.0494 27.4932 53.0498C27.4967 53.0507 27.5019 53.0527 27.5088 53.0547C27.5229 53.0587 27.5437 53.0647 27.5703 53.0732C27.6238 53.0904 27.7008 53.1169 27.793 53.1553C27.9777 53.2322 28.2239 53.3557 28.4697 53.54C28.9606 53.9082 29.4502 54.5196 29.4502 55.5C29.4502 56.1141 29.266 56.5718 28.9922 56.9141C28.7177 57.2572 28.3504 57.4875 27.9805 57.6416C27.6108 57.7956 27.2404 57.8724 26.9619 57.9111C26.8228 57.9304 26.7069 57.9405 26.626 57.9453C26.5855 57.9477 26.5537 57.9486 26.5322 57.9492C26.5215 57.9495 26.5133 57.9501 26.5078 57.9502H26.5V58.0498C27.5769 58.0499 28.4502 58.9231 28.4502 60C28.4502 61.0769 27.5769 61.9501 26.5 61.9502H20.5C17.4983 61.9502 13.5159 62.1487 9.53125 58.9609C7.04948 56.9755 6.3017 53.7461 6.92383 50.7598C7.54608 47.7734 9.53621 45.0411 12.5156 44.0479C12.953 43.9021 13.3005 43.5558 13.5762 43.084C13.8519 42.612 14.0589 42.0091 14.2129 41.3418C14.5208 40.0071 14.621 38.4023 14.6377 37.0352C14.6574 35.4234 15.9314 34.0498 17.5381 34.0498Z" fill="url(#paint18_radial_639_7864)"/>
<path d="M17.5381 34.0498C19.1177 34.0498 20.3735 35.3769 20.2861 36.9541L20.0586 41.041C19.9982 42.1321 20.8672 43.0498 21.96 43.0498H32C33.353 43.0499 34.4502 44.1469 34.4502 45.5C34.4502 46.8531 33.353 47.9501 32 47.9502H28.2881L28.4775 48.0449L29.1113 48.3613C29.9318 48.7717 30.4502 49.611 30.4502 50.5283C30.4499 51.8658 29.3649 52.9502 28.0273 52.9502H27.0938L27.4883 53.0488H27.4893C27.4901 53.049 27.4916 53.0494 27.4932 53.0498C27.4967 53.0507 27.5019 53.0527 27.5088 53.0547C27.5229 53.0587 27.5437 53.0647 27.5703 53.0732C27.6238 53.0904 27.7008 53.1169 27.793 53.1553C27.9777 53.2322 28.2239 53.3557 28.4697 53.54C28.9606 53.9082 29.4502 54.5196 29.4502 55.5C29.4502 56.1141 29.266 56.5718 28.9922 56.9141C28.7177 57.2572 28.3504 57.4875 27.9805 57.6416C27.6108 57.7956 27.2404 57.8724 26.9619 57.9111C26.8228 57.9304 26.7069 57.9405 26.626 57.9453C26.5855 57.9477 26.5537 57.9486 26.5322 57.9492C26.5215 57.9495 26.5133 57.9501 26.5078 57.9502H26.5V58.0498C27.5769 58.0499 28.4502 58.9231 28.4502 60C28.4502 61.0769 27.5769 61.9501 26.5 61.9502H20.5C17.4983 61.9502 13.5159 62.1487 9.53125 58.9609C7.04948 56.9755 6.3017 53.7461 6.92383 50.7598C7.54608 47.7734 9.53621 45.0411 12.5156 44.0479C12.953 43.9021 13.3005 43.5558 13.5762 43.084C13.8519 42.612 14.0589 42.0091 14.2129 41.3418C14.5208 40.0071 14.621 38.4023 14.6377 37.0352C14.6574 35.4234 15.9314 34.0498 17.5381 34.0498Z" fill="url(#paint19_radial_639_7864)"/>
<path d="M17.5381 34.0498C19.1177 34.0498 20.3735 35.3769 20.2861 36.9541L20.0586 41.041C19.9982 42.1321 20.8672 43.0498 21.96 43.0498H32C33.353 43.0499 34.4502 44.1469 34.4502 45.5C34.4502 46.8531 33.353 47.9501 32 47.9502H28.2881L28.4775 48.0449L29.1113 48.3613C29.9318 48.7717 30.4502 49.611 30.4502 50.5283C30.4499 51.8658 29.3649 52.9502 28.0273 52.9502H27.0938L27.4883 53.0488H27.4893C27.4901 53.049 27.4916 53.0494 27.4932 53.0498C27.4967 53.0507 27.5019 53.0527 27.5088 53.0547C27.5229 53.0587 27.5437 53.0647 27.5703 53.0732C27.6238 53.0904 27.7008 53.1169 27.793 53.1553C27.9777 53.2322 28.2239 53.3557 28.4697 53.54C28.9606 53.9082 29.4502 54.5196 29.4502 55.5C29.4502 56.1141 29.266 56.5718 28.9922 56.9141C28.7177 57.2572 28.3504 57.4875 27.9805 57.6416C27.6108 57.7956 27.2404 57.8724 26.9619 57.9111C26.8228 57.9304 26.7069 57.9405 26.626 57.9453C26.5855 57.9477 26.5537 57.9486 26.5322 57.9492C26.5215 57.9495 26.5133 57.9501 26.5078 57.9502H26.5V58.0498C27.5769 58.0499 28.4502 58.9231 28.4502 60C28.4502 61.0769 27.5769 61.9501 26.5 61.9502H20.5C17.4983 61.9502 13.5159 62.1487 9.53125 58.9609C7.04948 56.9755 6.3017 53.7461 6.92383 50.7598C7.54608 47.7734 9.53621 45.0411 12.5156 44.0479C12.953 43.9021 13.3005 43.5558 13.5762 43.084C13.8519 42.612 14.0589 42.0091 14.2129 41.3418C14.5208 40.0071 14.621 38.4023 14.6377 37.0352C14.6574 35.4234 15.9314 34.0498 17.5381 34.0498Z" fill="url(#paint20_radial_639_7864)"/>
<path d="M17.5381 34.0498C19.1177 34.0498 20.3735 35.3769 20.2861 36.9541L20.0586 41.041C19.9982 42.1321 20.8672 43.0498 21.96 43.0498H32C33.353 43.0499 34.4502 44.1469 34.4502 45.5C34.4502 46.8531 33.353 47.9501 32 47.9502H28.2881L28.4775 48.0449L29.1113 48.3613C29.9318 48.7717 30.4502 49.611 30.4502 50.5283C30.4499 51.8658 29.3649 52.9502 28.0273 52.9502H27.0938L27.4883 53.0488H27.4893C27.4901 53.049 27.4916 53.0494 27.4932 53.0498C27.4967 53.0507 27.5019 53.0527 27.5088 53.0547C27.5229 53.0587 27.5437 53.0647 27.5703 53.0732C27.6238 53.0904 27.7008 53.1169 27.793 53.1553C27.9777 53.2322 28.2239 53.3557 28.4697 53.54C28.9606 53.9082 29.4502 54.5196 29.4502 55.5C29.4502 56.1141 29.266 56.5718 28.9922 56.9141C28.7177 57.2572 28.3504 57.4875 27.9805 57.6416C27.6108 57.7956 27.2404 57.8724 26.9619 57.9111C26.8228 57.9304 26.7069 57.9405 26.626 57.9453C26.5855 57.9477 26.5537 57.9486 26.5322 57.9492C26.5215 57.9495 26.5133 57.9501 26.5078 57.9502H26.5V58.0498C27.5769 58.0499 28.4502 58.9231 28.4502 60C28.4502 61.0769 27.5769 61.9501 26.5 61.9502H20.5C17.4983 61.9502 13.5159 62.1487 9.53125 58.9609C7.04948 56.9755 6.3017 53.7461 6.92383 50.7598C7.54608 47.7734 9.53621 45.0411 12.5156 44.0479C12.953 43.9021 13.3005 43.5558 13.5762 43.084C13.8519 42.612 14.0589 42.0091 14.2129 41.3418C14.5208 40.0071 14.621 38.4023 14.6377 37.0352C14.6574 35.4234 15.9314 34.0498 17.5381 34.0498Z" fill="url(#paint21_radial_639_7864)"/>
<path d="M17.5381 34.0498C19.1177 34.0498 20.3735 35.3769 20.2861 36.9541L20.0586 41.041C19.9982 42.1321 20.8672 43.0498 21.96 43.0498H32C33.353 43.0499 34.4502 44.1469 34.4502 45.5C34.4502 46.8531 33.353 47.9501 32 47.9502H28.2881L28.4775 48.0449L29.1113 48.3613C29.9318 48.7717 30.4502 49.611 30.4502 50.5283C30.4499 51.8658 29.3649 52.9502 28.0273 52.9502H27.0938L27.4883 53.0488H27.4893C27.4901 53.049 27.4916 53.0494 27.4932 53.0498C27.4967 53.0507 27.5019 53.0527 27.5088 53.0547C27.5229 53.0587 27.5437 53.0647 27.5703 53.0732C27.6238 53.0904 27.7008 53.1169 27.793 53.1553C27.9777 53.2322 28.2239 53.3557 28.4697 53.54C28.9606 53.9082 29.4502 54.5196 29.4502 55.5C29.4502 56.1141 29.266 56.5718 28.9922 56.9141C28.7177 57.2572 28.3504 57.4875 27.9805 57.6416C27.6108 57.7956 27.2404 57.8724 26.9619 57.9111C26.8228 57.9304 26.7069 57.9405 26.626 57.9453C26.5855 57.9477 26.5537 57.9486 26.5322 57.9492C26.5215 57.9495 26.5133 57.9501 26.5078 57.9502H26.5V58.0498C27.5769 58.0499 28.4502 58.9231 28.4502 60C28.4502 61.0769 27.5769 61.9501 26.5 61.9502H20.5C17.4983 61.9502 13.5159 62.1487 9.53125 58.9609C7.04948 56.9755 6.3017 53.7461 6.92383 50.7598C7.54608 47.7734 9.53621 45.0411 12.5156 44.0479C12.953 43.9021 13.3005 43.5558 13.5762 43.084C13.8519 42.612 14.0589 42.0091 14.2129 41.3418C14.5208 40.0071 14.621 38.4023 14.6377 37.0352C14.6574 35.4234 15.9314 34.0498 17.5381 34.0498Z" fill="url(#paint22_radial_639_7864)"/>
<path d="M17.5381 34.0498C19.1177 34.0498 20.3735 35.3769 20.2861 36.9541L20.0586 41.041C19.9982 42.1321 20.8672 43.0498 21.96 43.0498H32C33.353 43.0499 34.4502 44.1469 34.4502 45.5C34.4502 46.8531 33.353 47.9501 32 47.9502H28.2881L28.4775 48.0449L29.1113 48.3613C29.9318 48.7717 30.4502 49.611 30.4502 50.5283C30.4499 51.8658 29.3649 52.9502 28.0273 52.9502H27.0938L27.4883 53.0488H27.4893C27.4901 53.049 27.4916 53.0494 27.4932 53.0498C27.4967 53.0507 27.5019 53.0527 27.5088 53.0547C27.5229 53.0587 27.5437 53.0647 27.5703 53.0732C27.6238 53.0904 27.7008 53.1169 27.793 53.1553C27.9777 53.2322 28.2239 53.3557 28.4697 53.54C28.9606 53.9082 29.4502 54.5196 29.4502 55.5C29.4502 56.1141 29.266 56.5718 28.9922 56.9141C28.7177 57.2572 28.3504 57.4875 27.9805 57.6416C27.6108 57.7956 27.2404 57.8724 26.9619 57.9111C26.8228 57.9304 26.7069 57.9405 26.626 57.9453C26.5855 57.9477 26.5537 57.9486 26.5322 57.9492C26.5215 57.9495 26.5133 57.9501 26.5078 57.9502H26.5V58.0498C27.5769 58.0499 28.4502 58.9231 28.4502 60C28.4502 61.0769 27.5769 61.9501 26.5 61.9502H20.5C17.4983 61.9502 13.5159 62.1487 9.53125 58.9609C7.04948 56.9755 6.3017 53.7461 6.92383 50.7598C7.54608 47.7734 9.53621 45.0411 12.5156 44.0479C12.953 43.9021 13.3005 43.5558 13.5762 43.084C13.8519 42.612 14.0589 42.0091 14.2129 41.3418C14.5208 40.0071 14.621 38.4023 14.6377 37.0352C14.6574 35.4234 15.9314 34.0498 17.5381 34.0498Z" fill="url(#paint23_radial_639_7864)"/>
<path d="M17.5381 34.0498C19.1177 34.0498 20.3735 35.3769 20.2861 36.9541L20.0586 41.041C19.9982 42.1321 20.8672 43.0498 21.96 43.0498H32C33.353 43.0499 34.4502 44.1469 34.4502 45.5C34.4502 46.8531 33.353 47.9501 32 47.9502H28.2881L28.4775 48.0449L29.1113 48.3613C29.9318 48.7717 30.4502 49.611 30.4502 50.5283C30.4499 51.8658 29.3649 52.9502 28.0273 52.9502H27.0938L27.4883 53.0488H27.4893C27.4901 53.049 27.4916 53.0494 27.4932 53.0498C27.4967 53.0507 27.5019 53.0527 27.5088 53.0547C27.5229 53.0587 27.5437 53.0647 27.5703 53.0732C27.6238 53.0904 27.7008 53.1169 27.793 53.1553C27.9777 53.2322 28.2239 53.3557 28.4697 53.54C28.9606 53.9082 29.4502 54.5196 29.4502 55.5C29.4502 56.1141 29.266 56.5718 28.9922 56.9141C28.7177 57.2572 28.3504 57.4875 27.9805 57.6416C27.6108 57.7956 27.2404 57.8724 26.9619 57.9111C26.8228 57.9304 26.7069 57.9405 26.626 57.9453C26.5855 57.9477 26.5537 57.9486 26.5322 57.9492C26.5215 57.9495 26.5133 57.9501 26.5078 57.9502H26.5V58.0498C27.5769 58.0499 28.4502 58.9231 28.4502 60C28.4502 61.0769 27.5769 61.9501 26.5 61.9502H20.5C17.4983 61.9502 13.5159 62.1487 9.53125 58.9609C7.04948 56.9755 6.3017 53.7461 6.92383 50.7598C7.54608 47.7734 9.53621 45.0411 12.5156 44.0479C12.953 43.9021 13.3005 43.5558 13.5762 43.084C13.8519 42.612 14.0589 42.0091 14.2129 41.3418C14.5208 40.0071 14.621 38.4023 14.6377 37.0352C14.6574 35.4234 15.9314 34.0498 17.5381 34.0498Z" fill="url(#paint24_radial_639_7864)"/>
<path d="M17.5381 34.0498C19.1177 34.0498 20.3735 35.3769 20.2861 36.9541L20.0586 41.041C19.9982 42.1321 20.8672 43.0498 21.96 43.0498H32C33.353 43.0499 34.4502 44.1469 34.4502 45.5C34.4502 46.8531 33.353 47.9501 32 47.9502H28.2881L28.4775 48.0449L29.1113 48.3613C29.9318 48.7717 30.4502 49.611 30.4502 50.5283C30.4499 51.8658 29.3649 52.9502 28.0273 52.9502H27.0938L27.4883 53.0488H27.4893C27.4901 53.049 27.4916 53.0494 27.4932 53.0498C27.4967 53.0507 27.5019 53.0527 27.5088 53.0547C27.5229 53.0587 27.5437 53.0647 27.5703 53.0732C27.6238 53.0904 27.7008 53.1169 27.793 53.1553C27.9777 53.2322 28.2239 53.3557 28.4697 53.54C28.9606 53.9082 29.4502 54.5196 29.4502 55.5C29.4502 56.1141 29.266 56.5718 28.9922 56.9141C28.7177 57.2572 28.3504 57.4875 27.9805 57.6416C27.6108 57.7956 27.2404 57.8724 26.9619 57.9111C26.8228 57.9304 26.7069 57.9405 26.626 57.9453C26.5855 57.9477 26.5537 57.9486 26.5322 57.9492C26.5215 57.9495 26.5133 57.9501 26.5078 57.9502H26.5V58.0498C27.5769 58.0499 28.4502 58.9231 28.4502 60C28.4502 61.0769 27.5769 61.9501 26.5 61.9502H20.5C17.4983 61.9502 13.5159 62.1487 9.53125 58.9609C7.04948 56.9755 6.3017 53.7461 6.92383 50.7598C7.54608 47.7734 9.53621 45.0411 12.5156 44.0479C12.953 43.9021 13.3005 43.5558 13.5762 43.084C13.8519 42.612 14.0589 42.0091 14.2129 41.3418C14.5208 40.0071 14.621 38.4023 14.6377 37.0352C14.6574 35.4234 15.9314 34.0498 17.5381 34.0498Z" stroke="url(#paint25_linear_639_7864)" stroke-width="0.1" stroke-miterlimit="10"/>
<path d="M29.1334 48.3167L28.5 48H17.5V53H28.0279C29.3932 53 30.5 51.8932 30.5 50.5279C30.5 49.5915 29.971 48.7355 29.1334 48.3167Z" fill="url(#paint26_radial_639_7864)"/>
<path d="M29.1334 48.3167L28.5 48H17.5V53H28.0279C29.3932 53 30.5 51.8932 30.5 50.5279C30.5 49.5915 29.971 48.7355 29.1334 48.3167Z" fill="url(#paint27_radial_639_7864)"/>
<path d="M29.1334 48.3167L28.5 48H17.5V53H28.0279C29.3932 53 30.5 51.8932 30.5 50.5279C30.5 49.5915 29.971 48.7355 29.1334 48.3167Z" fill="url(#paint28_linear_639_7864)"/>
<path d="M27.5 53H17.5V58H26.5C26.5 58 29.5 58 29.5 55.5C29.5 53.5073 27.5 53 27.5 53Z" fill="url(#paint29_radial_639_7864)"/>
<path d="M27.5 53H17.5V58H26.5C26.5 58 29.5 58 29.5 55.5C29.5 53.5073 27.5 53 27.5 53Z" fill="url(#paint30_radial_639_7864)"/>
<path d="M27.5 53H17.5V58H26.5C26.5 58 29.5 58 29.5 55.5C29.5 53.5073 27.5 53 27.5 53Z" fill="url(#paint31_linear_639_7864)"/>
<path d="M26.5 58H17.5V62H26.5C27.6046 62 28.5 61.1046 28.5 60C28.5 58.8954 27.6046 58 26.5 58Z" fill="url(#paint32_radial_639_7864)"/>
<path d="M26.5 58H17.5V62H26.5C27.6046 62 28.5 61.1046 28.5 60C28.5 58.8954 27.6046 58 26.5 58Z" fill="url(#paint33_linear_639_7864)"/>
<path d="M26.5 58H17.5V62H26.5C27.6046 62 28.5 61.1046 28.5 60C28.5 58.8954 27.6046 58 26.5 58Z" fill="url(#paint34_radial_639_7864)"/>
<path d="M32 43H16.5V48H32C33.3807 48 34.5 46.8807 34.5 45.5C34.5 44.1193 33.3807 43 32 43Z" fill="url(#paint35_linear_639_7864)"/>
<path d="M32 43H16.5V48H32C33.3807 48 34.5 46.8807 34.5 45.5C34.5 44.1193 33.3807 43 32 43Z" fill="url(#paint36_radial_639_7864)"/>
<path d="M32 43H16.5V48H32C33.3807 48 34.5 46.8807 34.5 45.5C34.5 44.1193 33.3807 43 32 43Z" fill="url(#paint37_radial_639_7864)"/>
<path d="M32 43H16.5V48H32C33.3807 48 34.5 46.8807 34.5 45.5C34.5 44.1193 33.3807 43 32 43Z" fill="url(#paint38_radial_639_7864)"/>
<path fill-rule="evenodd" clip-rule="evenodd" d="M14.7929 8.29289C15.5868 7.49903 17.7602 6 20.5 6C23.2398 6 25.4132 7.49903 26.2071 8.29289C26.5976 8.68342 26.5976 9.31658 26.2071 9.70711C25.8166 10.0976 25.1834 10.0976 24.7929 9.70711C24.2534 9.16764 22.5602 8 20.5 8C18.4398 8 16.7466 9.16764 16.2071 9.70711C15.8166 10.0976 15.1834 10.0976 14.7929 9.70711C14.4024 9.31658 14.4024 8.68342 14.7929 8.29289Z" fill="url(#paint39_radial_639_7864)"/>
<path fill-rule="evenodd" clip-rule="evenodd" d="M14.7929 8.29289C15.5868 7.49903 17.7602 6 20.5 6C23.2398 6 25.4132 7.49903 26.2071 8.29289C26.5976 8.68342 26.5976 9.31658 26.2071 9.70711C25.8166 10.0976 25.1834 10.0976 24.7929 9.70711C24.2534 9.16764 22.5602 8 20.5 8C18.4398 8 16.7466 9.16764 16.2071 9.70711C15.8166 10.0976 15.1834 10.0976 14.7929 9.70711C14.4024 9.31658 14.4024 8.68342 14.7929 8.29289Z" fill="url(#paint40_radial_639_7864)"/>
<path fill-rule="evenodd" clip-rule="evenodd" d="M36.7929 16.2929C36.4024 16.6834 36.4024 17.3166 36.7929 17.7071C37.1817 18.096 37.8111 18.0976 38.2021 17.7121L38.2074 17.7071C38.2149 17.7 38.2299 17.6862 38.2522 17.6666C38.297 17.6275 38.3713 17.5653 38.475 17.4875C38.6825 17.3318 39.0067 17.1147 39.4472 16.8944C40.3249 16.4556 41.6728 16 43.5 16C45.3272 16 46.6751 16.4556 47.5528 16.8944C47.9933 17.1147 48.3175 17.3318 48.525 17.4875C48.6287 17.5653 48.703 17.6275 48.7477 17.6666C48.7701 17.6862 48.7851 17.7 48.7926 17.7071L48.7979 17.7121C49.1888 18.0976 49.8183 18.096 50.2071 17.7071C50.5976 17.3166 50.5976 16.6834 50.2071 16.2929L50.2056 16.2914L50.204 16.2898L50.2 16.2859L50.1899 16.276L50.1605 16.248C50.1368 16.2258 50.1049 16.1966 50.0647 16.1615C49.9845 16.0913 49.8713 15.9972 49.725 15.8875C49.4325 15.6682 49.0067 15.3853 48.4472 15.1056C47.3249 14.5444 45.6728 14 43.5 14C41.3272 14 39.6751 14.5444 38.5528 15.1056C37.9933 15.3853 37.5675 15.6682 37.275 15.8875C37.1287 15.9972 37.0155 16.0913 36.9352 16.1615C36.8951 16.1966 36.8632 16.2258 36.8395 16.248L36.8101 16.276L36.7999 16.2859L36.796 16.2898L36.7944 16.2914L36.7929 16.2929Z" fill="url(#paint41_radial_639_7864)"/>
<path fill-rule="evenodd" clip-rule="evenodd" d="M36.7929 16.2929C36.4024 16.6834 36.4024 17.3166 36.7929 17.7071C37.1817 18.096 37.8111 18.0976 38.2021 17.7121L38.2074 17.7071C38.2149 17.7 38.2299 17.6862 38.2522 17.6666C38.297 17.6275 38.3713 17.5653 38.475 17.4875C38.6825 17.3318 39.0067 17.1147 39.4472 16.8944C40.3249 16.4556 41.6728 16 43.5 16C45.3272 16 46.6751 16.4556 47.5528 16.8944C47.9933 17.1147 48.3175 17.3318 48.525 17.4875C48.6287 17.5653 48.703 17.6275 48.7477 17.6666C48.7701 17.6862 48.7851 17.7 48.7926 17.7071L48.7979 17.7121C49.1888 18.0976 49.8183 18.096 50.2071 17.7071C50.5976 17.3166 50.5976 16.6834 50.2071 16.2929L50.2056 16.2914L50.204 16.2898L50.2 16.2859L50.1899 16.276L50.1605 16.248C50.1368 16.2258 50.1049 16.1966 50.0647 16.1615C49.9845 16.0913 49.8713 15.9972 49.725 15.8875C49.4325 15.6682 49.0067 15.3853 48.4472 15.1056C47.3249 14.5444 45.6728 14 43.5 14C41.3272 14 39.6751 14.5444 38.5528 15.1056C37.9933 15.3853 37.5675 15.6682 37.275 15.8875C37.1287 15.9972 37.0155 16.0913 36.9352 16.1615C36.8951 16.1966 36.8632 16.2258 36.8395 16.248L36.8101 16.276L36.7999 16.2859L36.796 16.2898L36.7944 16.2914L36.7929 16.2929Z" fill="url(#paint42_radial_639_7864)"/>
<defs>
<radialGradient id="paint0_radial_639_7864" cx="0" cy="0" r="1" gradientUnits="userSpaceOnUse" gradientTransform="translate(51.5 18) rotate(131.878) scale(77.8974)">
<stop stop-color="#FFF478"/>
<stop offset="0.474827" stop-color="#FFB02E"/>
<stop offset="1" stop-color="#F70A8D"/>
</radialGradient>
<radialGradient id="paint1_radial_639_7864" cx="0" cy="0" r="1" gradientUnits="userSpaceOnUse" gradientTransform="translate(32.5 25) rotate(101.31) scale(35.6931 45.7161)">
<stop offset="0.787821" stop-color="#F59639" stop-opacity="0"/>
<stop offset="0.972509" stop-color="#FF7DCE"/>
</radialGradient>
<radialGradient id="paint2_radial_639_7864" cx="0" cy="0" r="1" gradientUnits="userSpaceOnUse" gradientTransform="translate(36.5 28) rotate(135) scale(82.0244)">
<stop offset="0.314853" stop-opacity="0"/>
<stop offset="1"/>
</radialGradient>
<radialGradient id="paint3_radial_639_7864" cx="0" cy="0" r="1" gradientUnits="userSpaceOnUse" gradientTransform="translate(32.5 34) rotate(77.692) scale(56.2939)">
<stop offset="0.507903" stop-color="#7D6133" stop-opacity="0"/>
<stop offset="1" stop-color="#715B32"/>
</radialGradient>
<radialGradient id="paint4_radial_639_7864" cx="0" cy="0" r="1" gradientUnits="userSpaceOnUse" gradientTransform="translate(33.5 33) rotate(55.7131) scale(26.6271 19.3006)">
<stop stop-color="#FFB849"/>
<stop offset="1" stop-color="#FFB847" stop-opacity="0"/>
</radialGradient>
<radialGradient id="paint5_radial_639_7864" cx="0" cy="0" r="1" gradientUnits="userSpaceOnUse" gradientTransform="translate(41.5 36) rotate(9.86581) scale(23.3452)">
<stop stop-color="#FFA64B"/>
<stop offset="0.900412" stop-color="#FFAE46" stop-opacity="0"/>
</radialGradient>
<radialGradient id="paint6_radial_639_7864" cx="0" cy="0" r="1" gradientUnits="userSpaceOnUse" gradientTransform="translate(35.5 30) rotate(43.9708) scale(118.106)">
<stop offset="0.185425" stop-opacity="0"/>
<stop offset="1" stop-opacity="0.4"/>
</radialGradient>
<radialGradient id="paint7_radial_639_7864" cx="0" cy="0" r="1" gradientUnits="userSpaceOnUse" gradientTransform="translate(29.049 56.1909) rotate(21.6444) scale(21.1861)">
<stop stop-color="#F47360"/>
<stop offset="1" stop-color="#F47360" stop-opacity="0"/>
</radialGradient>
<radialGradient id="paint8_radial_639_7864" cx="0" cy="0" r="1" gradientUnits="userSpaceOnUse" gradientTransform="translate(20.1674 25.9077) rotate(111.744) scale(10.1372)">
<stop offset="0.220588" stop-color="#392108"/>
<stop offset="1" stop-color="#C87928" stop-opacity="0"/>
</radialGradient>
<radialGradient id="paint9_radial_639_7864" cx="0" cy="0" r="1" gradientUnits="userSpaceOnUse" gradientTransform="translate(41.8983 25.8544) rotate(114.702) scale(9.42805)">
<stop offset="0.301089" stop-color="#392108"/>
<stop offset="1" stop-color="#E87F14" stop-opacity="0"/>
</radialGradient>
<radialGradient id="paint10_radial_639_7864" cx="0" cy="0" r="1" gradientUnits="userSpaceOnUse" gradientTransform="translate(19.0726 17.2343) rotate(43.6594) scale(8.16751 10.3444)">
<stop stop-color="#D59A13"/>
<stop offset="1" stop-color="#D59A13" stop-opacity="0"/>
</radialGradient>
<radialGradient id="paint11_radial_639_7864" cx="0" cy="0" r="1" gradientUnits="userSpaceOnUse" gradientTransform="translate(19.3331 46.8219) rotate(88.698) scale(9.78446 18.9546)">
<stop stop-color="#B06223"/>
<stop offset="1" stop-color="#C67C10" stop-opacity="0"/>
</radialGradient>
<radialGradient id="paint12_radial_639_7864" cx="0" cy="0" r="1" gradientUnits="userSpaceOnUse" gradientTransform="translate(15.5435 41.2243) rotate(92.4408) scale(9.7836 7.85597)">
<stop stop-color="#B06223"/>
<stop offset="1" stop-color="#C67C10" stop-opacity="0"/>
</radialGradient>
<radialGradient id="paint13_radial_639_7864" cx="0" cy="0" r="1" gradientUnits="userSpaceOnUse" gradientTransform="translate(17.2686 37.0217) rotate(144.605) scale(5.0353 6.11366)">
<stop stop-color="#D78E2C"/>
<stop offset="1" stop-color="#D78E2C" stop-opacity="0"/>
</radialGradient>
<radialGradient id="paint14_radial_639_7864" cx="0" cy="0" r="1" gradientUnits="userSpaceOnUse" gradientTransform="translate(32.5002 41.1024) rotate(90) scale(17.6318 24.2293)">
<stop offset="0.205066" stop-color="#482641"/>
<stop offset="0.298574" stop-color="#503A4A"/>
<stop offset="0.408068" stop-color="#483637"/>
</radialGradient>
<radialGradient id="paint15_radial_639_7864" cx="0" cy="0" r="1" gradientUnits="userSpaceOnUse" gradientTransform="translate(33.2757 34.3816) rotate(95.8118) scale(7.65796 12.0597)">
<stop offset="0.588241" stop-color="#4F302E" stop-opacity="0"/>
<stop offset="1" stop-color="#4F302E"/>
</radialGradient>
<radialGradient id="paint16_radial_639_7864" cx="0" cy="0" r="1" gradientUnits="userSpaceOnUse" gradientTransform="translate(39.1662 39.5143) rotate(63.4349) scale(3.62027 1.75383)">
<stop stop-color="#5B4A50"/>
<stop offset="1" stop-color="#5B4A50" stop-opacity="0"/>
</radialGradient>
<linearGradient id="paint17_linear_639_7864" x1="33.2647" y1="17" x2="32.2486" y2="26.4141" gradientUnits="userSpaceOnUse">
<stop stop-color="#553B3E"/>
<stop offset="1" stop-color="#3D2432"/>
</linearGradient>
<radialGradient id="paint18_radial_639_7864" cx="0" cy="0" r="1" gradientUnits="userSpaceOnUse" gradientTransform="translate(27.5747 42.5371) rotate(108.591) scale(40.3033 42.0639)">
<stop offset="0.104167" stop-color="#FFCC42"/>
<stop offset="0.537866" stop-color="#FFB02E"/>
<stop offset="1" stop-color="#F70A8D"/>
</radialGradient>
<radialGradient id="paint19_radial_639_7864" cx="0" cy="0" r="1" gradientTransform="matrix(-2.09703 18.5257 -19.2138 -2.19505 21.745 45.2994)" gradientUnits="userSpaceOnUse">
<stop offset="0.65203" stop-color="#FFB745" stop-opacity="0"/>
<stop offset="0.892907" stop-color="#F69044"/>
<stop offset="1" stop-color="#DE6A63"/>
</radialGradient>
<radialGradient id="paint20_radial_639_7864" cx="0" cy="0" r="1" gradientUnits="userSpaceOnUse" gradientTransform="translate(19.1893 36.3365) rotate(90) scale(2.89667)">
<stop stop-color="#FFE646"/>
<stop offset="1" stop-color="#FFE646" stop-opacity="0"/>
</radialGradient>
<radialGradient id="paint21_radial_639_7864" cx="0" cy="0" r="1" gradientUnits="userSpaceOnUse" gradientTransform="translate(19.8494 40.3433) rotate(79.0116) scale(5.59216 3.30498)">
<stop stop-color="#FFE646"/>
<stop offset="1" stop-color="#FFE646" stop-opacity="0"/>
</radialGradient>
<radialGradient id="paint22_radial_639_7864" cx="0" cy="0" r="1" gradientUnits="userSpaceOnUse" gradientTransform="translate(21.3739 36.3281) rotate(62.0434) scale(4.4911 1.54779)">
<stop stop-color="#F6AB23"/>
<stop offset="1" stop-color="#F6AB23" stop-opacity="0"/>
</radialGradient>
<radialGradient id="paint23_radial_639_7864" cx="0" cy="0" r="1" gradientUnits="userSpaceOnUse" gradientTransform="translate(21.5498 38.2189) rotate(93.1302) scale(5.6367 1.9426)">
<stop stop-color="#F6AB23"/>
<stop offset="1" stop-color="#F6AB23" stop-opacity="0"/>
</radialGradient>
<radialGradient id="paint24_radial_639_7864" cx="0" cy="0" r="1" gradientUnits="userSpaceOnUse" gradientTransform="translate(24.3603 52.6671) rotate(89.1311) scale(9.33646 9.28024)">
<stop stop-color="#FFD24A"/>
<stop offset="1" stop-color="#FFD24A" stop-opacity="0"/>
</radialGradient>
<linearGradient id="paint25_linear_639_7864" x1="8.28132" y1="63.0172" x2="21.5729" y2="47.5234" gradientUnits="userSpaceOnUse">
<stop stop-color="#AD583D"/>
<stop offset="1" stop-color="#CE6D4E" stop-opacity="0"/>
</linearGradient>
<radialGradient id="paint26_radial_639_7864" cx="0" cy="0" r="1" gradientUnits="userSpaceOnUse" gradientTransform="translate(24 49.4003) rotate(2.62159) scale(5.78984 2.21439)">
<stop stop-color="#FFD339"/>
<stop offset="0.708333" stop-color="#FFC438" stop-opacity="0.291667"/>
<stop offset="1" stop-color="#FFBE38" stop-opacity="0"/>
</radialGradient>
<radialGradient id="paint27_radial_639_7864" cx="0" cy="0" r="1" gradientUnits="userSpaceOnUse" gradientTransform="translate(27.6319 48) rotate(2.96689) scale(7.54686 2.53552)">
<stop stop-color="#A03B04"/>
<stop offset="1" stop-color="#FA9428" stop-opacity="0"/>
</radialGradient>
<linearGradient id="paint28_linear_639_7864" x1="24" y1="53.7508" x2="23.5467" y2="51.7798" gradientUnits="userSpaceOnUse">
<stop stop-color="#FF9F3A"/>
<stop offset="0.879558" stop-color="#FF9F3A" stop-opacity="0"/>
</linearGradient>
<radialGradient id="paint29_radial_639_7864" cx="0" cy="0" r="1" gradientUnits="userSpaceOnUse" gradientTransform="translate(23.4542 54.3363) rotate(-0.0381116) scale(6.32954 2.66373)">
<stop stop-color="#FFD339"/>
<stop offset="1" stop-color="#FFBE38" stop-opacity="0"/>
</radialGradient>
<radialGradient id="paint30_radial_639_7864" cx="0" cy="0" r="1" gradientTransform="matrix(6.31677 0.293968 -0.118617 1.69759 26.3322 52.706)" gradientUnits="userSpaceOnUse">
<stop stop-color="#A03B04"/>
<stop offset="1" stop-color="#FA9428" stop-opacity="0"/>
</radialGradient>
<linearGradient id="paint31_linear_639_7864" x1="23.8566" y1="58.5031" x2="23.3355" y2="56.4965" gradientUnits="userSpaceOnUse">
<stop stop-color="#FF9F3A"/>
<stop offset="0.879558" stop-color="#FF9F3A" stop-opacity="0"/>
</linearGradient>
<radialGradient id="paint32_radial_639_7864" cx="0" cy="0" r="1" gradientTransform="matrix(5.48729 0.444848 -0.135868 2.06505 25.8087 57.5552)" gradientUnits="userSpaceOnUse">
<stop stop-color="#A03B04"/>
<stop offset="1" stop-color="#FA9428" stop-opacity="0"/>
</radialGradient>
<linearGradient id="paint33_linear_639_7864" x1="23.7237" y1="65.4892" x2="22.994" y2="62.9941" gradientUnits="userSpaceOnUse">
<stop stop-color="#FF9F3A"/>
<stop offset="0.879558" stop-color="#FF9F3A" stop-opacity="0"/>
</linearGradient>
<radialGradient id="paint34_radial_639_7864" cx="0" cy="0" r="1" gradientUnits="userSpaceOnUse" gradientTransform="translate(23.3916 59.433) scale(5.10841 1.91456)">
<stop stop-color="#FFD339"/>
<stop offset="1" stop-color="#FFBE38" stop-opacity="0"/>
</radialGradient>
<linearGradient id="paint35_linear_639_7864" x1="25.1459" y1="48.5528" x2="24.8054" y2="46.5477" gradientUnits="userSpaceOnUse">
<stop stop-color="#FF9F3A"/>
<stop offset="0.879558" stop-color="#FF9F3A" stop-opacity="0"/>
</linearGradient>
<radialGradient id="paint36_radial_639_7864" cx="0" cy="0" r="1" gradientUnits="userSpaceOnUse" gradientTransform="translate(27.8187 42.4476) rotate(88.6361) scale(1.68793 6.49463)">
<stop stop-color="#FF9F3A"/>
<stop offset="0.879558" stop-color="#FF9F3A" stop-opacity="0"/>
</radialGradient>
<radialGradient id="paint37_radial_639_7864" cx="0" cy="0" r="1" gradientUnits="userSpaceOnUse" gradientTransform="translate(33.1445 45.0958) rotate(90) scale(2.90424 2.13895)">
<stop stop-color="#FFE646"/>
<stop offset="1" stop-color="#FFE646" stop-opacity="0"/>
</radialGradient>
<radialGradient id="paint38_radial_639_7864" cx="0" cy="0" r="1" gradientUnits="userSpaceOnUse" gradientTransform="translate(26.0362 44.8863) rotate(0.227362) scale(7.05745 1.73666)">
<stop stop-color="#FFE646"/>
<stop offset="1" stop-color="#FFE646" stop-opacity="0"/>
</radialGradient>
<radialGradient id="paint39_radial_639_7864" cx="0" cy="0" r="1" gradientTransform="matrix(-4.6646 -2.80198 8.45018 -2.44223 23.7557 9.81552)" gradientUnits="userSpaceOnUse">
<stop offset="0.552138" stop-color="#4A2F37"/>
<stop offset="0.822285" stop-color="#51394C"/>
<stop offset="0.881253" stop-color="#50394C"/>
<stop offset="1" stop-color="#4D3635"/>
</radialGradient>
<radialGradient id="paint40_radial_639_7864" cx="0" cy="0" r="1" gradientTransform="matrix(-0.991304 -0.0276868 0.124969 -0.7768 25.9065 6.62371)" gradientUnits="userSpaceOnUse">
<stop stop-color="#5A4950"/>
<stop offset="1" stop-color="#5D4C4F" stop-opacity="0"/>
</radialGradient>
<radialGradient id="paint41_radial_639_7864" cx="0" cy="0" r="1" gradientUnits="userSpaceOnUse" gradientTransform="translate(43.5 19.109) scale(8.79715 5.23383)">
<stop offset="0.641397" stop-color="#2F1F2A"/>
<stop offset="0.822285" stop-color="#51394C"/>
<stop offset="0.881253" stop-color="#50394C"/>
<stop offset="1" stop-color="#442E3E"/>
</radialGradient>
<radialGradient id="paint42_radial_639_7864" cx="0" cy="0" r="1" gradientUnits="userSpaceOnUse" gradientTransform="translate(43.5 16) scale(7.39217 6.7347)">
<stop offset="0.645531" stop-color="#362530" stop-opacity="0"/>
<stop offset="1" stop-color="#342330"/>
</radialGradient>
</defs>
</svg>
